# xmcd
#
# Track frame offsets: 
#        182
#        12947
#        26815
#        39925
#        49997
#        61482
#        73745
#        104927
#        121032
#        139977
#        152885
#        167480
#        186105
#        210765
#
# Disc length: 2973 seconds
#
# Revision: 3
# Processed by: cddbd v1.5.1PL0 Copyright (c) Steve Scherf et al.
# Submitted via: ExactAudioCopy v0.90b4
#
DISCID=c40b9b0e
DTITLE=Various Artist - Ultimate Blues Collection [CD1]
DYEAR=1990
DGENRE=
TTITLE0=Muddy Waters - Hoochie Coochie Man
TTITLE1=Howlin' Wolf - Smokestack Lightening
TTITLE2=Elmore James - Dust My Broom
TTITLE3=John Lee Hooker - Dimples
TTITLE4=Sonny Boy Williamson - Don't Start Me Talkin'
TTITLE5=Little Walter - Juke
TTITLE6=BB King - Outside Help
TTITLE7=John Mayall's Blues Breakers - All Your Love
TTITLE8=Alexis Korner - I Got My Mojo Working
TTITLE9=Fleetwood Mac - Black Magic Woman
TTITLE10=Chicken Shack - I'd Rather Go Blind
TTITLE11=Savoy Brown - Train To Nowhere
TTITLE12=Jimi Hendrix - Catfish Blues
TTITLE13=Johnny Winter - Good Morning Little School GIrl
EXTD=
EXTT0=
EXTT1=
EXTT2=
EXTT3=
EXTT4=
EXTT5=
EXTT6=
EXTT7=
EXTT8=
EXTT9=
EXTT10=
EXTT11=
EXTT12=
EXTT13=
PLAYORDER=
